<svg width="267" height="38" viewBox="0 0 267 38" fill="none" xmlns="http://www.w3.org/2000/svg">
<path d="M16.2 28.296H12.744V37.8H0V0H18.198C21.69 0 24.732 0.576 27.324 1.728C29.916 2.88 31.914 4.536 33.318 6.696C34.722 8.856 35.424 11.376 35.424 14.256C35.424 16.956 34.812 19.314 33.588 21.33C32.364 23.346 30.6 24.948 28.296 26.136L36.234 37.8H22.626L16.2 28.296ZM22.572 14.256C22.572 12.852 22.14 11.772 21.276 11.016C20.412 10.224 19.116 9.828 17.388 9.828H12.744V18.684H17.388C19.116 18.684 20.412 18.306 21.276 17.55C22.14 16.758 22.572 15.66 22.572 14.256Z" fill="url(#paint0_linear_15_120)"/>
<path d="M65.9943 31.212H51.6303L49.0923 37.8H36.1323L52.6563 0H65.1843L81.7083 37.8H68.5323L65.9943 31.212ZM62.4843 22.032L58.8123 12.528L55.1403 22.032H62.4843Z" fill="url(#paint1_linear_15_120)"/>
<path d="M83.7422 0H102.372C106.584 0 110.292 0.774001 113.496 2.322C116.736 3.834 119.238 6.012 121.002 8.856C122.802 11.7 123.702 15.048 123.702 18.9C123.702 22.752 122.802 26.1 121.002 28.944C119.238 31.788 116.736 33.984 113.496 35.532C110.292 37.044 106.584 37.8 102.372 37.8H83.7422V0ZM101.832 27.864C104.568 27.864 106.746 27.09 108.366 25.542C110.022 23.958 110.85 21.744 110.85 18.9C110.85 16.056 110.022 13.86 108.366 12.312C106.746 10.728 104.568 9.936 101.832 9.936H96.4862V27.864H101.832Z" fill="url(#paint2_linear_15_120)"/>
<path d="M128.355 0H141.099V37.8H128.355V0Z" fill="url(#paint3_linear_15_120)"/>
<path d="M172.992 31.212H158.628L156.09 37.8H143.13L159.654 0H172.182L188.706 37.8H175.53L172.992 31.212ZM169.482 22.032L165.81 12.528L162.138 22.032H169.482Z" fill="url(#paint4_linear_15_120)"/>
<path d="M228 0V37.8H217.524L203.16 20.628V37.8H190.74V0H201.216L215.58 17.172V0H228Z" fill="url(#paint5_linear_15_120)"/>
<path d="M242.349 9.882H231.279V0H266.163V9.882H255.093V37.8H242.349V9.882Z" fill="url(#paint6_linear_15_120)"/>
<defs>
<linearGradient id="paint0_linear_15_120" x1="212.422" y1="-14.2" x2="74.422" y2="62.3" gradientUnits="userSpaceOnUse">
<stop stop-color="#9382A9"/>
<stop offset="0.33319" stop-color="#7649B0"/>
<stop offset="1" stop-color="#331E4F"/>
</linearGradient>
<linearGradient id="paint1_linear_15_120" x1="212.422" y1="-14.2" x2="74.422" y2="62.3" gradientUnits="userSpaceOnUse">
<stop stop-color="#9382A9"/>
<stop offset="0.33319" stop-color="#7649B0"/>
<stop offset="1" stop-color="#331E4F"/>
</linearGradient>
<linearGradient id="paint2_linear_15_120" x1="212.422" y1="-14.2" x2="74.422" y2="62.3" gradientUnits="userSpaceOnUse">
<stop stop-color="#9382A9"/>
<stop offset="0.33319" stop-color="#7649B0"/>
<stop offset="1" stop-color="#331E4F"/>
</linearGradient>
<linearGradient id="paint3_linear_15_120" x1="212.422" y1="-14.2" x2="74.422" y2="62.3" gradientUnits="userSpaceOnUse">
<stop stop-color="#9382A9"/>
<stop offset="0.33319" stop-color="#7649B0"/>
<stop offset="1" stop-color="#331E4F"/>
</linearGradient>
<linearGradient id="paint4_linear_15_120" x1="212.422" y1="-14.2" x2="74.422" y2="62.3" gradientUnits="userSpaceOnUse">
<stop stop-color="#9382A9"/>
<stop offset="0.33319" stop-color="#7649B0"/>
<stop offset="1" stop-color="#331E4F"/>
</linearGradient>
<linearGradient id="paint5_linear_15_120" x1="212.422" y1="-14.2" x2="74.422" y2="62.3" gradientUnits="userSpaceOnUse">
<stop stop-color="#9382A9"/>
<stop offset="0.33319" stop-color="#7649B0"/>
<stop offset="1" stop-color="#331E4F"/>
</linearGradient>
<linearGradient id="paint6_linear_15_120" x1="212.422" y1="-14.2" x2="74.422" y2="62.3" gradientUnits="userSpaceOnUse">
<stop stop-color="#9382A9"/>
<stop offset="0.33319" stop-color="#7649B0"/>
<stop offset="1" stop-color="#331E4F"/>
</linearGradient>
</defs>
</svg>
